<svg width="93" height="44" viewBox="0 0 93 44" fill="none" xmlns="http://www.w3.org/2000/svg">
<circle cx="22" cy="22" r="22" fill="#F4DE4D"/>
<path d="M34.4 30.315C38.201 30.315 40.469 27.9 41.141 25.38L38.831 24.624C38.327 26.304 36.899 27.9 34.4 27.9C31.859 27.9 29.465 26.052 29.465 22.566C29.465 18.954 31.922 17.169 34.379 17.169C36.878 17.169 38.264 18.618 38.705 20.424L41.078 19.626C40.406 17.022 38.159 14.796 34.379 14.796C30.515 14.796 26.882 17.715 26.882 22.566C26.882 27.417 30.389 30.315 34.4 30.315Z" fill="black"/>
<path d="M45.945 27.228C45.945 28.845 47.268 30.315 49.41 30.315C51.069 30.315 52.077 29.475 52.56 28.698C52.56 29.517 52.644 29.937 52.665 30H54.933C54.912 29.895 54.807 29.286 54.807 28.362V23.28C54.807 21.243 53.61 19.458 50.46 19.458C47.94 19.458 46.344 21.033 46.155 22.797L48.381 23.301C48.486 22.272 49.2 21.453 50.481 21.453C51.825 21.453 52.413 22.146 52.413 23.007C52.413 23.364 52.245 23.658 51.657 23.742L49.032 24.141C47.289 24.393 45.945 25.401 45.945 27.228ZM49.872 28.404C48.906 28.404 48.381 27.774 48.381 27.081C48.381 26.241 48.99 25.821 49.746 25.695L52.413 25.296V25.758C52.413 27.753 51.237 28.404 49.872 28.404ZM60.1668 33.99V28.845C60.6918 29.622 61.8048 30.252 63.2748 30.252C66.2148 30.252 68.0838 27.942 68.0838 24.876C68.0838 21.852 66.3828 19.542 63.3588 19.542C61.7838 19.542 60.6078 20.277 60.1038 21.159V19.773H57.7518V33.99H60.1668ZM65.6478 24.876C65.6478 26.829 64.5138 28.089 62.8968 28.089C61.3008 28.089 60.1458 26.829 60.1458 24.876C60.1458 22.965 61.3008 21.705 62.8968 21.705C64.5348 21.705 65.6478 22.965 65.6478 24.876ZM72.1266 23.763C72.2106 22.671 73.0926 21.495 74.6256 21.495C76.3056 21.495 77.1036 22.566 77.1456 23.763H72.1266ZM77.4186 26.43C77.0826 27.438 76.3266 28.215 74.8566 28.215C73.3446 28.215 72.1266 27.102 72.0636 25.548H79.5396C79.5606 25.506 79.6026 25.17 79.6026 24.771C79.6026 21.537 77.7546 19.458 74.6046 19.458C72.0216 19.458 69.6276 21.6 69.6276 24.834C69.6276 28.299 72.0846 30.315 74.8566 30.315C77.3136 30.315 78.9306 28.866 79.4766 27.081L77.4186 26.43ZM83.5685 24.855C83.5685 22.902 84.7445 21.663 86.3405 21.663C87.9365 21.663 89.0285 22.881 89.0285 24.834C89.0285 26.787 87.9155 28.11 86.3195 28.11C84.6605 28.11 83.5685 26.808 83.5685 24.855ZM91.3805 14.796H89.0075V20.97C88.6925 20.319 87.7895 19.5 86.0045 19.5C83.1275 19.5 81.1325 21.915 81.1325 24.855C81.1325 27.942 83.1065 30.252 86.0465 30.252C87.4955 30.252 88.5665 29.538 89.0495 28.677C89.0495 29.097 89.1125 29.769 89.1545 30H91.4855C91.4645 29.832 91.3805 29.055 91.3805 28.131V14.796Z" fill="black"/>
<rect x="69" y="14" width="12" height="3" fill="black"/>
</svg>
